<?xml version="1.0" encoding="UTF-8" standalone="no"?><!DOCTYPE svg PUBLIC "-//W3C//DTD SVG 1.1//EN" "http://www.w3.org/Graphics/SVG/1.1/DTD/svg11.dtd"><svg width="100%" height="100%" viewBox="0 0 256 256" version="1.1" xmlns="http://www.w3.org/2000/svg" xmlns:xlink="http://www.w3.org/1999/xlink" xml:space="preserve" xmlns:serif="http://www.serif.com/" style="fill-rule:evenodd;clip-rule:evenodd;stroke-linecap:round;stroke-linejoin:round;stroke-miterlimit:1.5;"><rect id="Artboard2" x="0" y="0" width="256" height="256" style="fill:none;"/><g><path d="M107.48,28.284l-11.313,11.314l79.195,79.196c0,0 0,0 0,0c6.249,-6.248 6.249,-16.379 0,-22.627c-21.885,-21.886 -67.882,-67.883 -67.882,-67.883Z" style="stroke:#000;stroke-width:1px;"/><path d="M152.735,141.421l-11.314,-11.313l-90.509,90.509c0,0 0,0 0,0c6.248,6.249 16.379,6.249 22.627,0c24.28,-24.28 79.196,-79.196 79.196,-79.196Z" style="stroke:#000;stroke-width:1px;"/><path d="M192.333,169.706l11.314,-11.314l-62.192,-62.192c0,0 0,0 0,0.001c-3.006,2.988 -4.7,7.05 -4.706,11.289c-0.006,4.239 1.675,8.306 4.672,11.304c17.942,17.942 50.912,50.912 50.912,50.912Z" style="stroke:#000;stroke-width:1px;"/></g></svg>