<?xml version="1.0" encoding="UTF-8" standalone="no"?><!DOCTYPE svg PUBLIC "-//W3C//DTD SVG 1.1//EN" "http://www.w3.org/Graphics/SVG/1.1/DTD/svg11.dtd"><svg width="100%" height="100%" viewBox="0 0 512 512" version="1.1" xmlns="http://www.w3.org/2000/svg" xmlns:xlink="http://www.w3.org/1999/xlink" xml:space="preserve" xmlns:serif="http://www.serif.com/" style="fill-rule:evenodd;clip-rule:evenodd;stroke-linecap:round;stroke-linejoin:round;stroke-miterlimit:1.5;"><rect id="Artboard1" x="0" y="0" width="512" height="512" style="fill:none;"/><path d="M46.807,220.587l0,-79.136l43.351,0l0,4.804l-37.827,0l0,29.901l31.702,0l0,4.803l-31.702,0l0,34.825l39.027,0l0,4.803l-44.551,0Z" style="fill-rule:nonzero;"/><path d="M108.651,220.587l0,-79.136l18.373,0c6.084,0 11.388,0.921 15.911,2.762c4.523,1.842 8.266,4.483 11.228,7.926c2.962,3.442 5.164,7.565 6.605,12.369c1.441,4.803 2.161,10.207 2.161,16.211c0,6.004 -0.72,11.468 -2.161,16.392c-1.441,4.923 -3.643,9.126 -6.605,12.609c-2.962,3.482 -6.685,6.164 -11.168,8.045c-4.483,1.882 -9.767,2.822 -15.851,2.822l-18.493,0Zm5.524,-4.683l12.248,0c5.364,0 9.987,-0.861 13.87,-2.582c3.883,-1.721 7.065,-4.143 9.547,-7.265c2.482,-3.122 4.323,-6.825 5.524,-11.108c1.201,-4.283 1.801,-9.026 1.801,-14.23c0,-5.124 -0.6,-9.807 -1.801,-14.05c-1.201,-4.243 -3.042,-7.885 -5.524,-10.928c-2.482,-3.042 -5.664,-5.403 -9.547,-7.085c-3.883,-1.681 -8.506,-2.521 -13.87,-2.521l-12.248,0l0,69.769Z" style="fill-rule:nonzero;"/><rect x="181.182" y="141.451" width="5.524" height="79.136" style="fill-rule:nonzero;"/><path d="M226.307,339.444l-16.794,-73.781l5.374,0l9.293,43.44c0.821,4.031 1.66,8.042 2.519,12.036c0.858,3.993 1.698,8.005 2.519,12.035l0.448,0c0.895,-4.03 1.81,-8.042 2.743,-12.035c0.933,-3.994 1.922,-8.005 2.967,-12.036l11.531,-43.44l5.263,0l11.531,43.44c1.045,4.031 2.034,8.042 2.967,12.036c0.933,3.993 1.922,8.005 2.967,12.035l0.448,0c0.821,-4.03 1.623,-8.042 2.407,-12.035c0.784,-3.994 1.586,-8.005 2.407,-12.036l9.293,-43.44l5.038,0l-16.458,73.781l-5.71,0l-13.435,-50.606c-0.672,-2.911 -1.343,-5.691 -2.015,-8.341c-0.672,-2.649 -1.306,-5.43 -1.904,-8.341l-0.447,0c-0.598,2.911 -1.269,5.692 -2.016,8.341c-0.746,2.65 -1.455,5.43 -2.127,8.341l-13.211,50.606l-5.598,0Z" style="fill-rule:nonzero;"/><path d="M323.264,340.788c-3.434,0 -6.662,-0.635 -9.685,-1.904c-3.023,-1.269 -5.654,-3.116 -7.893,-5.542c-2.239,-2.426 -4.012,-5.374 -5.318,-8.845c-1.306,-3.47 -1.959,-7.408 -1.959,-11.811c0,-4.404 0.653,-8.36 1.959,-11.868c1.306,-3.508 3.06,-6.475 5.262,-8.901c2.202,-2.426 4.702,-4.292 7.501,-5.598c2.799,-1.306 5.692,-1.959 8.677,-1.959c6.419,0 11.457,2.165 15.115,6.494c3.657,4.329 5.486,10.449 5.486,18.361c0,0.672 0,1.343 0,2.015c0,0.672 -0.075,1.344 -0.224,2.016l-38.738,0c0.075,3.358 0.597,6.474 1.567,9.348c0.971,2.874 2.333,5.337 4.087,7.389c1.754,2.053 3.863,3.658 6.326,4.815c2.463,1.157 5.224,1.735 8.285,1.735c2.911,0 5.542,-0.429 7.893,-1.287c2.351,-0.859 4.534,-2.034 6.549,-3.527l2.016,3.806c-2.165,1.269 -4.535,2.464 -7.11,3.583c-2.575,1.12 -5.84,1.68 -9.796,1.68Zm-19.817,-31.573l34.26,0c0,-6.942 -1.419,-12.11 -4.255,-15.506c-2.836,-3.397 -6.68,-5.095 -11.532,-5.095c-2.314,0 -4.515,0.467 -6.605,1.4c-2.09,0.933 -3.975,2.295 -5.654,4.086c-1.68,1.792 -3.061,3.956 -4.143,6.494c-1.082,2.538 -1.772,5.411 -2.071,8.621Z" style="fill-rule:nonzero;"/><path d="M367.04,340.788c-2.165,0 -4.18,-0.299 -6.046,-0.896c-1.866,-0.597 -3.508,-1.493 -4.926,-2.687c-1.418,-1.194 -2.538,-2.725 -3.359,-4.591c-0.821,-1.866 -1.231,-4.067 -1.231,-6.605c0,-5.971 2.78,-10.506 8.341,-13.603c5.56,-3.098 14.349,-5.318 26.366,-6.662c0,-2.015 -0.149,-4.049 -0.448,-6.102c-0.298,-2.052 -0.933,-3.881 -1.903,-5.486c-0.97,-1.604 -2.277,-2.911 -3.919,-3.918c-1.642,-1.008 -3.806,-1.512 -6.493,-1.512c-3.583,0 -6.867,0.709 -9.853,2.128c-2.985,1.418 -5.411,2.799 -7.277,4.142l-2.239,-3.695c0.97,-0.671 2.146,-1.418 3.526,-2.239c1.381,-0.821 2.93,-1.567 4.647,-2.239c1.716,-0.672 3.582,-1.25 5.598,-1.735c2.015,-0.485 4.105,-0.728 6.269,-0.728c3.135,0 5.785,0.541 7.949,1.623c2.165,1.083 3.919,2.557 5.263,4.423c1.343,1.866 2.313,4.049 2.911,6.549c0.597,2.501 0.895,5.207 0.895,8.117l0,34.372l-4.254,0l-0.448,-6.941l-0.336,0c-2.762,2.164 -5.729,4.086 -8.901,5.765c-3.172,1.68 -6.549,2.52 -10.132,2.52Zm0.896,-4.255c3.134,0 6.12,-0.746 8.956,-2.239c2.837,-1.493 5.934,-3.657 9.293,-6.494l0,-18.249c-5.523,0.672 -10.188,1.493 -13.995,2.463c-3.807,0.97 -6.867,2.127 -9.181,3.471c-2.313,1.343 -3.974,2.873 -4.982,4.59c-1.007,1.717 -1.511,3.62 -1.511,5.71c0,1.941 0.298,3.583 0.895,4.926c0.598,1.344 1.419,2.445 2.464,3.303c1.044,0.858 2.257,1.493 3.638,1.903c1.381,0.411 2.855,0.616 4.423,0.616Z" style="fill-rule:nonzero;"/><path d="M421.452,339.444l-20.153,-53.741l5.375,0l12.091,33.7c0.821,2.613 1.717,5.225 2.687,7.837c0.97,2.613 1.866,5.151 2.687,7.614l0.448,0c0.896,-2.463 1.81,-5.001 2.743,-7.614c0.933,-2.612 1.847,-5.224 2.743,-7.837l12.092,-33.7l5.038,0l-19.929,53.741l-5.822,0Z" style="fill-rule:nonzero;"/><path d="M479.223,340.788c-3.433,0 -6.661,-0.635 -9.684,-1.904c-3.023,-1.269 -5.654,-3.116 -7.893,-5.542c-2.24,-2.426 -4.012,-5.374 -5.318,-8.845c-1.307,-3.47 -1.96,-7.408 -1.96,-11.811c0,-4.404 0.653,-8.36 1.96,-11.868c1.306,-3.508 3.06,-6.475 5.262,-8.901c2.202,-2.426 4.702,-4.292 7.501,-5.598c2.799,-1.306 5.691,-1.959 8.677,-1.959c6.419,0 11.457,2.165 15.114,6.494c3.658,4.329 5.486,10.449 5.486,18.361c0,0.672 0,1.343 0,2.015c0,0.672 -0.074,1.344 -0.224,2.016l-38.738,0c0.075,3.358 0.598,6.474 1.568,9.348c0.97,2.874 2.332,5.337 4.086,7.389c1.754,2.053 3.863,3.658 6.326,4.815c2.463,1.157 5.225,1.735 8.285,1.735c2.911,0 5.542,-0.429 7.893,-1.287c2.351,-0.859 4.535,-2.034 6.55,-3.527l2.015,3.806c-2.164,1.269 -4.534,2.464 -7.109,3.583c-2.575,1.12 -5.841,1.68 -9.797,1.68Zm-19.817,-31.573l34.26,0c0,-6.942 -1.418,-12.11 -4.254,-15.506c-2.837,-3.397 -6.681,-5.095 -11.532,-5.095c-2.314,0 -4.516,0.467 -6.606,1.4c-2.09,0.933 -3.974,2.295 -5.654,4.086c-1.679,1.792 -3.06,3.956 -4.142,6.494c-1.083,2.538 -1.773,5.411 -2.072,8.621Z" style="fill-rule:nonzero;"/><g><path d="M192.333,101.823l-11.314,11.314l79.196,79.196c0,0 0,0 0,0c6.249,-6.248 6.249,-16.379 0,-22.627c-21.885,-21.886 -67.882,-67.883 -67.882,-67.883Z" style="stroke:#000;stroke-width:1px;"/><path d="M237.588,214.96l-11.314,-11.313l-90.509,90.509c0,0 0,0.001 0.001,0.002c6.248,6.247 16.377,6.247 22.625,0c24.279,-24.279 79.197,-79.198 79.197,-79.198Z" style="stroke:#000;stroke-width:1px;"/><path d="M277.186,243.245l11.314,-11.314l-61.659,-62.725c0,0 -0.033,0.034 -0.096,0.097c-6.211,6.21 -6.254,16.266 -0.097,22.53c17.758,18.065 50.538,51.412 50.538,51.412Z" style="stroke:#000;stroke-width:1px;"/></g></svg>